<svg xmlns="http://www.w3.org/2000/svg" xmlns:xlink="http://www.w3.org/1999/xlink" width="500" zoomAndPan="magnify" viewBox="0 0 375 374.999991" height="500" preserveAspectRatio="xMidYMid meet" version="1.0"><defs><clipPath id="94faad45b9"><path d="M 63.105469 173 L 312 173 L 312 298.382812 L 63.105469 298.382812 Z M 63.105469 173 " clip-rule="nonzero"/></clipPath><clipPath id="6b42acd8e6"><path d="M 93 95.132812 L 282 95.132812 L 282 174 L 93 174 Z M 93 95.132812 " clip-rule="nonzero"/></clipPath></defs><path fill="#f6e4ff" d="M 187.5 53.773438 C 261.304688 53.773438 321.226562 113.695312 321.226562 187.5 C 321.226562 261.304688 261.304688 321.226562 187.5 321.226562 C 113.695312 321.226562 53.773438 261.304688 53.773438 187.5 C 53.773438 113.695312 113.695312 53.773438 187.5 53.773438 Z M 198.652344 0.457031 C 191.222656 0.015625 183.777344 0.015625 176.351562 0.457031 L 163.410156 30.0625 C 151.859375 31.832031 140.535156 34.867188 129.644531 39.109375 L 103.632812 19.941406 C 96.980469 23.269531 90.53125 26.996094 84.320312 31.089844 L 87.917969 63.203125 C 78.796875 70.507812 70.507812 78.796875 63.199219 87.917969 L 31.089844 84.320312 C 26.996094 90.53125 23.269531 96.980469 19.941406 103.632812 L 39.113281 129.644531 C 34.867188 140.53125 31.832031 151.855469 30.066406 163.40625 L 0.457031 176.347656 C 0.015625 183.777344 0.015625 191.222656 0.457031 198.648438 L 30.066406 211.589844 C 31.832031 223.140625 34.867188 234.464844 39.113281 245.355469 L 19.941406 271.363281 C 23.269531 278.015625 26.996094 284.464844 31.089844 290.675781 L 63.203125 287.082031 C 70.507812 296.203125 78.796875 304.492188 87.917969 311.796875 L 84.324219 343.90625 C 90.535156 348.003906 96.984375 351.726562 103.636719 355.058594 L 129.644531 335.886719 C 140.535156 340.132812 151.855469 343.167969 163.410156 344.933594 L 176.351562 374.542969 C 183.777344 374.984375 191.222656 374.984375 198.652344 374.542969 L 211.589844 344.933594 C 223.144531 343.167969 234.464844 340.132812 245.355469 335.886719 L 271.363281 355.058594 C 278.019531 351.730469 284.46875 348.003906 290.675781 343.90625 L 287.082031 311.796875 C 296.203125 304.488281 304.492188 296.203125 311.796875 287.082031 L 343.90625 290.675781 C 348.003906 284.464844 351.730469 278.015625 355.058594 271.363281 L 335.886719 245.355469 C 340.132812 234.464844 343.167969 223.140625 344.933594 211.589844 L 374.542969 198.648438 C 374.984375 191.222656 374.984375 183.777344 374.542969 176.347656 L 344.933594 163.410156 C 343.167969 151.859375 340.132812 140.535156 335.886719 129.644531 L 355.058594 103.636719 C 351.730469 96.984375 348.003906 90.535156 343.90625 84.324219 L 311.796875 87.921875 C 304.492188 78.796875 296.203125 70.511719 287.082031 63.203125 L 290.675781 31.09375 C 284.464844 26.996094 278.015625 23.273438 271.363281 19.941406 L 245.355469 39.113281 C 234.46875 34.867188 223.144531 31.832031 211.589844 30.066406 Z M 198.652344 0.457031 " fill-opacity="1" fill-rule="evenodd"/><g clip-path="url(#94faad45b9)"><path fill="#f6e4ff" d="M 311.058594 206.832031 C 277.472656 201.351562 249.175781 181.320312 242.597656 177.234375 C 232.933594 171.054688 198.152344 171.253906 197.65625 200.253906 C 197.15625 229.550781 228.546875 228.453125 232.832031 255.058594 C 236.816406 280.367188 192.492188 281.066406 187.496094 281.066406 C 182.5 281.066406 138.171875 280.363281 142.15625 255.058594 C 146.441406 228.453125 177.832031 229.550781 177.335938 200.253906 C 176.835938 171.253906 142.058594 171.054688 132.390625 177.234375 C 125.816406 181.320312 97.515625 201.347656 63.933594 206.832031 C 63.433594 206.933594 63.136719 207.429688 63.335938 207.828125 C 65.726562 213.109375 80.078125 242.703125 104.890625 267.214844 C 126.011719 288.136719 156.800781 298.601562 187.492188 298.707031 L 187.5 298.707031 C 218.1875 298.601562 248.976562 288.140625 270.101562 267.214844 C 294.910156 242.703125 309.261719 213.105469 311.652344 207.828125 C 311.851562 207.429688 311.550781 206.933594 311.054688 206.832031 Z M 137.875 200.253906 C 137.875 193.875 143.058594 188.492188 149.53125 188.492188 C 156.007812 188.492188 161.289062 193.875 161.289062 200.253906 C 161.289062 206.632812 156.105469 211.914062 149.53125 211.914062 C 142.957031 211.914062 137.875 206.730469 137.875 200.253906 Z M 225.457031 211.914062 C 218.882812 211.914062 213.699219 206.730469 213.699219 200.253906 C 213.699219 193.777344 218.882812 188.492188 225.457031 188.492188 C 232.03125 188.492188 237.117188 193.875 237.117188 200.253906 C 237.117188 206.632812 231.933594 211.914062 225.457031 211.914062 Z M 225.457031 211.914062 " fill-opacity="1" fill-rule="nonzero"/></g><path fill="#f6e4ff" d="M 187.496094 268.511719 C 196.863281 267.511719 205.726562 258.644531 204.332031 248.878906 C 203.535156 242.605469 190.398438 241.90625 187.496094 241.804688 L 187.488281 241.804688 C 184.585938 241.910156 171.449219 242.605469 170.65625 248.878906 C 169.261719 258.644531 178.125 267.507812 187.488281 268.507812 C 187.488281 268.507812 187.488281 268.507812 187.492188 268.507812 Z M 187.496094 268.511719 " fill-opacity="1" fill-rule="nonzero"/><g clip-path="url(#6b42acd8e6)"><path fill="#f6e4ff" d="M 94.425781 172.550781 C 106.78125 180.023438 124.023438 154.316406 156.503906 155.609375 C 166.28125 155.996094 176.269531 161.789062 182.175781 165.894531 C 185.347656 168.101562 189.632812 168 192.671875 165.613281 C 198.8125 160.792969 206.816406 156.066406 218.480469 155.609375 C 250.96875 154.316406 268.207031 180.023438 280.5625 172.550781 C 285.542969 169.460938 275.980469 147.140625 274.085938 142.65625 L 274.085938 142.457031 C 273.589844 126.214844 279.863281 122.03125 278.769531 105.191406 C 278.371094 99.109375 274.382812 95.125 269.101562 95.425781 C 249.171875 96.523438 238.90625 116.253906 229.839844 110.773438 C 220.375 105.09375 203.9375 102.105469 187.496094 102.003906 L 187.488281 102.003906 C 171.046875 102.105469 154.609375 105.09375 145.144531 110.773438 C 136.078125 116.253906 125.816406 96.523438 105.886719 95.425781 C 100.605469 95.128906 96.617188 99.113281 96.21875 105.191406 C 95.125 122.03125 101.402344 126.214844 100.90625 142.457031 L 100.90625 142.65625 C 99.011719 147.140625 89.445312 169.464844 94.425781 172.550781 Z M 268.207031 110.867188 C 271.097656 114.953125 264.917969 135.082031 264.917969 135.082031 C 260.234375 128.402344 250.371094 123.519531 250.371094 123.519531 C 256.550781 110.464844 268.210938 110.863281 268.210938 110.863281 Z M 106.785156 110.867188 C 106.785156 110.867188 118.441406 110.46875 124.621094 123.523438 C 124.621094 123.523438 114.753906 128.40625 110.074219 135.085938 C 110.074219 135.085938 103.894531 114.957031 106.785156 110.871094 Z M 106.785156 110.867188 " fill-opacity="1" fill-rule="nonzero"/></g></svg>